<?xml version="1.0" encoding="UTF-8" ?>
<!DOCTYPE svg PUBLIC "-//W3C//DTD SVG 1.1//EN" "http://www.w3.org/Graphics/SVG/1.1/DTD/svg11.dtd">
<svg width="428pt" height="437pt" viewBox="0 0 428 437" version="1.1" xmlns="http://www.w3.org/2000/svg">
<g id="#ffffffff">
<path fill="#ffffff" opacity="1.00" d=" M 257.00 176.01 C 296.00 175.99 335.00 176.00 374.01 176.00 C 374.00 186.96 373.98 197.92 373.87 208.88 C 370.82 209.97 368.08 211.72 365.43 213.55 C 366.01 203.38 366.06 193.18 366.16 182.99 C 352.10 183.00 338.05 183.01 324.00 183.00 C 324.00 197.66 324.01 212.33 324.00 227.00 C 337.38 226.99 350.77 227.00 364.17 227.00 C 364.00 232.30 363.95 237.63 363.94 242.94 C 362.32 243.01 360.72 243.08 359.12 243.15 C 359.08 244.85 358.99 248.25 358.95 249.94 C 357.24 249.99 353.80 250.08 352.09 250.12 C 352.05 252.66 352.02 255.20 351.99 257.75 C 349.68 258.21 347.38 258.68 345.09 259.19 C 345.46 253.78 345.82 248.40 346.15 243.00 C 341.43 242.99 336.74 243.01 332.04 243.01 C 332.05 244.70 332.07 248.09 332.08 249.79 C 329.38 249.88 326.69 249.98 324.01 250.09 C 324.00 252.72 324.00 255.35 324.00 257.99 C 326.64 257.99 329.29 258.00 331.94 258.00 C 331.98 255.26 332.03 252.52 332.08 249.79 C 336.15 253.27 340.49 256.41 345.09 259.19 C 347.32 260.88 349.57 262.57 351.82 264.26 C 351.88 267.13 352.01 270.04 352.09 272.92 C 353.81 272.95 357.25 273.02 358.96 273.05 C 359.01 274.69 359.10 277.97 359.15 279.60 C 354.75 279.75 350.38 279.89 346.00 280.04 C 345.98 278.33 345.93 274.92 345.91 273.22 C 343.11 272.98 340.32 272.74 337.53 272.50 C 337.68 269.65 337.89 266.86 338.06 264.04 C 333.35 264.01 328.67 264.00 323.98 264.00 C 324.00 269.31 324.03 274.62 324.07 279.93 C 326.29 279.95 328.53 279.98 330.77 280.02 C 332.70 282.88 334.69 285.72 336.84 288.44 C 337.17 286.32 337.84 282.08 338.18 279.96 C 340.77 279.97 343.38 280.00 346.00 280.04 C 346.02 281.77 346.06 285.25 346.08 286.99 C 350.35 286.98 354.64 287.01 358.92 287.01 C 358.98 285.16 359.09 281.46 359.15 279.60 C 360.69 280.05 363.76 280.94 365.29 281.38 C 368.44 282.58 371.52 283.98 374.73 285.01 C 374.23 286.34 373.21 289.00 372.70 290.32 C 365.86 291.35 358.89 291.03 352.00 291.16 C 320.34 290.92 288.67 291.01 257.00 290.99 C 256.99 252.66 256.99 214.33 257.00 176.01 M 265.00 182.99 C 264.99 197.33 265.00 211.66 265.00 226.00 C 278.66 225.99 292.33 225.99 306.00 226.01 C 306.00 211.67 305.99 197.33 306.00 183.00 C 292.33 183.00 278.67 183.00 265.00 182.99 M 265.01 241.99 C 264.98 256.66 265.00 271.33 265.00 286.00 C 278.66 286.00 292.33 285.99 305.99 286.01 C 306.01 271.34 305.99 256.67 306.00 242.00 C 292.33 242.00 278.67 242.00 265.01 241.99 Z" />
<path fill="#ffffff" opacity="1.00" d=" M 269.00 189.00 C 279.33 189.00 289.66 188.99 300.00 189.00 C 300.00 199.33 300.00 209.66 300.00 220.00 C 289.66 220.00 279.33 220.00 269.00 220.00 C 269.00 209.66 268.99 199.33 269.00 189.00 M 276.00 194.00 C 276.00 200.99 276.00 207.99 275.99 215.00 C 281.99 215.01 287.99 215.00 294.00 215.00 C 293.99 208.00 293.99 201.00 294.01 194.00 C 288.00 193.99 281.99 193.99 276.00 194.00 Z" />
<path fill="#ffffff" opacity="1.00" d=" M 329.00 189.00 C 339.66 188.99 350.33 188.99 361.00 189.00 C 361.00 199.66 361.00 210.33 361.00 221.00 C 350.33 221.00 339.67 221.00 329.00 221.00 C 328.99 210.33 328.99 199.67 329.00 189.00 M 336.00 195.00 C 336.00 201.99 336.00 208.99 335.99 216.00 C 341.99 216.01 347.99 216.00 354.00 216.00 C 353.99 209.00 353.99 202.00 354.01 195.00 C 348.00 194.99 341.99 194.99 336.00 195.00 Z" />
<path fill="#ffffff" opacity="1.00" d=" M 269.00 247.00 C 279.33 246.99 289.66 246.99 300.00 247.00 C 299.99 258.33 299.99 269.66 300.00 281.00 C 289.66 281.00 279.33 281.01 269.00 281.00 C 269.00 269.66 269.01 258.33 269.00 247.00 M 276.00 254.00 C 276.00 261.33 275.99 268.66 275.99 276.00 C 281.99 276.00 287.99 275.99 294.00 276.00 C 294.00 268.66 294.00 261.33 294.01 254.00 C 288.00 254.00 282.00 254.00 276.00 254.00 Z" />
<path fill="#ffffff" opacity="1.00" d=" M 358.95 249.94 C 360.61 249.96 362.27 249.98 363.93 250.00 C 363.92 252.66 363.92 255.33 363.93 258.00 C 362.29 258.00 360.64 258.01 359.01 258.02 C 358.98 255.32 358.96 252.63 358.95 249.94 Z" />
<path fill="#ffffff" opacity="1.00" d=" M 351.99 257.75 C 353.74 257.82 357.25 257.95 359.01 258.02 C 359.00 260.00 359.00 261.99 359.01 263.98 C 357.21 264.05 353.62 264.19 351.82 264.26 C 351.88 262.09 351.93 259.92 351.99 257.75 Z" />
<path fill="#ffffff" opacity="1.00" d=" M 359.01 263.98 C 360.67 263.99 362.33 263.99 364.00 264.01 C 364.08 267.00 364.19 269.96 364.40 272.96 C 362.58 272.99 360.77 273.02 358.96 273.05 C 358.98 270.03 358.96 266.98 359.01 263.98 Z" />
<path fill="#ffffff" opacity="1.00" d=" M 330.77 280.02 C 332.97 277.47 335.21 274.94 337.53 272.50 C 337.70 274.36 338.02 278.09 338.18 279.96 C 335.71 279.98 333.23 280.00 330.77 280.02 Z" />
</g>
<g id="#313131ff">
<path fill="#313131" opacity="1.00" d=" M 35.76 76.76 C 58.51 51.74 94.72 39.75 127.86 47.16 C 161.27 53.59 190.14 78.96 200.71 111.31 C 212.53 144.75 203.86 184.59 178.76 209.77 C 164.66 225.29 145.02 234.39 124.82 238.88 C 152.47 242.45 180.34 247.50 205.79 259.34 C 221.54 269.02 236.88 279.54 251.45 290.95 C 253.03 292.26 254.72 293.42 256.49 294.47 C 265.76 300.55 274.61 307.26 283.97 313.24 C 291.05 306.86 298.09 300.46 305.20 294.12 C 306.95 294.12 310.46 294.13 312.21 294.13 C 304.54 301.48 297.19 309.28 288.62 315.59 C 282.86 318.83 277.07 314.52 272.35 311.66 C 257.69 301.72 243.81 290.69 229.04 280.91 C 217.55 273.31 207.04 263.71 193.71 259.37 C 139.90 240.33 80.12 237.29 25.13 253.21 C 16.65 255.95 7.98 258.39 0.00 262.46 L 0.00 257.20 C 26.84 244.59 56.86 240.37 86.17 237.91 C 70.75 233.14 55.25 226.88 43.35 215.63 C 25.70 200.57 14.47 178.84 10.91 156.06 C 7.23 127.74 16.08 97.66 35.76 76.76 M 99.44 50.52 C 72.17 53.05 45.97 67.88 30.92 90.94 C 22.09 103.72 17.35 118.87 15.19 134.13 C 13.92 155.30 18.97 177.24 31.29 194.72 C 52.42 226.32 94.32 242.11 131.01 232.03 C 169.33 223.22 198.83 187.12 200.98 148.02 C 201.62 129.18 197.30 109.91 187.07 93.94 C 169.18 64.59 133.71 46.65 99.44 50.52 Z" />
<path fill="#313131" opacity="1.00" d=" M 365.43 213.55 C 368.08 211.72 370.82 209.97 373.87 208.88 C 375.24 208.78 376.61 208.71 377.99 208.68 C 386.78 208.76 395.64 208.50 404.36 209.78 C 409.29 211.69 411.25 217.52 411.46 222.39 C 412.61 239.05 412.70 255.84 411.40 272.49 C 411.47 277.48 408.55 281.79 404.51 284.39 C 397.60 289.03 391.50 294.75 385.68 300.68 C 356.88 329.88 327.60 358.61 298.85 387.86 C 295.13 391.49 291.43 395.22 287.07 398.09 C 282.38 401.13 276.40 400.05 271.17 399.70 C 262.13 398.21 254.50 392.89 246.96 388.05 C 225.56 373.65 203.58 360.14 181.99 346.03 C 182.00 376.35 181.99 406.67 182.00 437.00 L 177.00 437.00 C 176.94 405.84 177.18 374.69 176.84 343.53 C 171.76 339.21 165.00 336.14 162.17 329.75 C 168.99 331.45 174.78 335.68 180.76 339.20 C 205.42 355.28 230.21 371.16 255.01 387.02 C 261.16 390.65 267.43 395.39 275.01 394.76 C 283.08 395.85 289.53 390.08 294.83 384.86 C 327.79 351.49 361.14 318.51 394.20 285.24 C 388.78 285.25 383.38 285.23 377.98 285.19 C 376.89 285.16 375.81 285.10 374.73 285.01 C 371.52 283.98 368.44 282.58 365.29 281.38 C 364.98 278.58 364.62 275.78 364.40 272.96 C 364.19 269.96 364.08 267.00 364.00 264.01 C 363.95 262.00 363.94 260.00 363.93 258.00 C 363.92 255.33 363.92 252.66 363.93 250.00 C 363.93 248.24 363.93 244.70 363.94 242.94 C 363.95 237.63 364.00 232.30 364.17 227.00 C 364.43 222.50 365.07 218.04 365.43 213.55 M 371.47 213.85 C 368.67 221.90 369.13 230.60 368.81 239.00 C 368.98 252.69 368.01 266.66 371.24 280.10 C 382.31 280.01 393.38 280.00 404.46 280.05 C 409.42 263.53 406.48 245.91 406.93 228.96 C 406.12 224.34 407.39 217.31 402.73 214.37 C 392.34 213.48 381.88 213.98 371.47 213.85 Z" />
</g>
<g id="#d4d4d4ff">
<path fill="#d4d4d4" opacity="1.00" d=" M 99.44 50.52 C 133.71 46.65 169.18 64.59 187.07 93.94 C 197.30 109.91 201.62 129.18 200.98 148.02 C 198.83 187.12 169.33 223.22 131.01 232.03 C 94.32 242.11 52.42 226.32 31.29 194.72 C 18.97 177.24 13.92 155.30 15.19 134.13 C 17.35 118.87 22.09 103.72 30.92 90.94 C 45.97 67.88 72.17 53.05 99.44 50.52 Z" />
<path fill="#d4d4d4" opacity="1.00" d=" M 371.47 213.85 C 381.88 213.98 392.34 213.48 402.73 214.37 C 407.39 217.31 406.12 224.34 406.93 228.96 C 406.48 245.91 409.42 263.53 404.46 280.05 C 393.38 280.00 382.31 280.01 371.24 280.10 C 368.01 266.66 368.98 252.69 368.81 239.00 C 369.13 230.60 368.67 221.90 371.47 213.85 Z" />
<path fill="#d4d4d4" opacity="1.00" d=" M 25.13 253.21 C 80.12 237.29 139.90 240.33 193.71 259.37 C 207.04 263.71 217.55 273.31 229.04 280.91 C 243.81 290.69 257.69 301.72 272.35 311.66 C 277.07 314.52 282.86 318.83 288.62 315.59 C 297.19 309.28 304.54 301.48 312.21 294.13 C 334.12 293.95 356.04 294.01 377.96 293.98 C 377.97 291.06 377.94 288.10 377.98 285.19 C 383.38 285.23 388.78 285.25 394.20 285.24 C 361.14 318.51 327.79 351.49 294.83 384.86 C 289.53 390.08 283.08 395.85 275.01 394.76 C 267.43 395.39 261.16 390.65 255.01 387.02 C 230.21 371.16 205.42 355.28 180.76 339.20 C 174.78 335.68 168.99 331.45 162.17 329.75 C 165.00 336.14 171.76 339.21 176.84 343.53 C 177.18 374.69 176.94 405.84 177.00 437.00 L 0.00 437.00 L 0.00 262.46 C 7.98 258.39 16.65 255.95 25.13 253.21 Z" />
</g>
<g id="#000000ff">
<path fill="#000000" opacity="1.00" d=" M 252.01 172.01 C 294.00 171.99 336.00 171.99 377.99 172.01 C 377.99 184.23 378.00 196.46 377.99 208.68 C 376.61 208.71 375.24 208.78 373.87 208.88 C 373.98 197.92 374.00 186.96 374.01 176.00 C 335.00 176.00 296.00 175.99 257.00 176.01 C 256.99 214.33 256.99 252.66 257.00 290.99 C 288.67 291.01 320.34 290.92 352.00 291.16 C 358.89 291.03 365.86 291.35 372.70 290.32 C 373.21 289.00 374.23 286.34 374.73 285.01 C 375.81 285.10 376.89 285.16 377.98 285.19 C 377.94 288.10 377.97 291.06 377.96 293.98 C 356.04 294.01 334.12 293.95 312.21 294.13 C 310.46 294.13 306.95 294.12 305.20 294.12 C 288.96 293.91 272.72 294.19 256.49 294.47 C 254.72 293.42 253.03 292.26 251.45 290.95 C 252.67 251.31 251.68 211.65 252.01 172.01 Z" />
<path fill="#000000" opacity="1.00" d=" M 265.00 182.99 C 278.67 183.00 292.33 183.00 306.00 183.00 C 305.99 197.33 306.00 211.67 306.00 226.01 C 292.33 225.99 278.66 225.99 265.00 226.00 C 265.00 211.66 264.99 197.33 265.00 182.99 M 269.00 189.00 C 268.99 199.33 269.00 209.66 269.00 220.00 C 279.33 220.00 289.66 220.00 300.00 220.00 C 300.00 209.66 300.00 199.33 300.00 189.00 C 289.66 188.99 279.33 189.00 269.00 189.00 Z" />
<path fill="#000000" opacity="1.00" d=" M 324.00 183.00 C 338.05 183.01 352.10 183.00 366.16 182.99 C 366.06 193.18 366.01 203.38 365.43 213.55 C 365.07 218.04 364.43 222.50 364.17 227.00 C 350.77 227.00 337.38 226.99 324.00 227.00 C 324.01 212.33 324.00 197.66 324.00 183.00 M 329.00 189.00 C 328.99 199.67 328.99 210.33 329.00 221.00 C 339.67 221.00 350.33 221.00 361.00 221.00 C 361.00 210.33 361.00 199.66 361.00 189.00 C 350.33 188.99 339.66 188.99 329.00 189.00 Z" />
<path fill="#000000" opacity="1.00" d=" M 276.00 194.00 C 281.99 193.99 288.00 193.99 294.01 194.00 C 293.99 201.00 293.99 208.00 294.00 215.00 C 287.99 215.00 281.99 215.01 275.99 215.00 C 276.00 207.99 276.00 200.99 276.00 194.00 Z" />
<path fill="#000000" opacity="1.00" d=" M 336.00 195.00 C 341.99 194.99 348.00 194.99 354.01 195.00 C 353.99 202.00 353.99 209.00 354.00 216.00 C 347.99 216.00 341.99 216.01 335.99 216.00 C 336.00 208.99 336.00 201.99 336.00 195.00 Z" />
<path fill="#000000" opacity="1.00" d=" M 265.01 241.99 C 278.67 242.00 292.33 242.00 306.00 242.00 C 305.99 256.67 306.01 271.34 305.99 286.01 C 292.33 285.99 278.66 286.00 265.00 286.00 C 265.00 271.33 264.98 256.66 265.01 241.99 M 269.00 247.00 C 269.01 258.33 269.00 269.66 269.00 281.00 C 279.33 281.01 289.66 281.00 300.00 281.00 C 299.99 269.66 299.99 258.33 300.00 247.00 C 289.66 246.99 279.33 246.99 269.00 247.00 Z" />
<path fill="#000000" opacity="1.00" d=" M 332.04 243.01 C 336.74 243.01 341.43 242.99 346.15 243.00 C 345.82 248.40 345.46 253.78 345.09 259.19 C 340.49 256.41 336.15 253.27 332.08 249.79 C 332.07 248.09 332.05 244.70 332.04 243.01 Z" />
<path fill="#000000" opacity="1.00" d=" M 359.12 243.15 C 360.72 243.08 362.32 243.01 363.94 242.94 C 363.93 244.70 363.93 248.24 363.93 250.00 C 362.27 249.98 360.61 249.96 358.95 249.94 C 358.99 248.25 359.08 244.85 359.12 243.15 Z" />
<path fill="#000000" opacity="1.00" d=" M 324.01 250.09 C 326.69 249.98 329.38 249.88 332.08 249.79 C 332.03 252.52 331.98 255.26 331.94 258.00 C 329.29 258.00 326.64 257.99 324.00 257.99 C 324.00 255.35 324.00 252.72 324.01 250.09 Z" />
<path fill="#000000" opacity="1.00" d=" M 352.09 250.12 C 353.80 250.08 357.24 249.99 358.95 249.94 C 358.96 252.63 358.98 255.32 359.01 258.02 C 357.25 257.95 353.74 257.82 351.99 257.75 C 352.02 255.20 352.05 252.66 352.09 250.12 Z" />
<path fill="#000000" opacity="1.00" d=" M 276.00 254.00 C 282.00 254.00 288.00 254.00 294.01 254.00 C 294.00 261.33 294.00 268.66 294.00 276.00 C 287.99 275.99 281.99 276.00 275.99 276.00 C 275.99 268.66 276.00 261.33 276.00 254.00 Z" />
<path fill="#000000" opacity="1.00" d=" M 345.09 259.19 C 347.38 258.68 349.68 258.21 351.99 257.75 C 351.93 259.92 351.88 262.09 351.82 264.26 C 349.57 262.57 347.32 260.88 345.09 259.19 Z" />
<path fill="#000000" opacity="1.00" d=" M 359.01 258.02 C 360.64 258.01 362.29 258.00 363.93 258.00 C 363.94 260.00 363.95 262.00 364.00 264.01 C 362.33 263.99 360.67 263.99 359.01 263.98 C 359.00 261.99 359.00 260.00 359.01 258.02 Z" />
<path fill="#000000" opacity="1.00" d=" M 323.98 264.00 C 328.67 264.00 333.35 264.01 338.06 264.04 C 337.89 266.86 337.68 269.65 337.53 272.50 C 335.21 274.94 332.97 277.47 330.77 280.02 C 328.53 279.98 326.29 279.95 324.07 279.93 C 324.03 274.62 324.00 269.31 323.98 264.00 Z" />
<path fill="#000000" opacity="1.00" d=" M 351.82 264.26 C 353.62 264.19 357.21 264.05 359.01 263.98 C 358.96 266.98 358.98 270.03 358.96 273.05 C 357.25 273.02 353.81 272.95 352.09 272.92 C 352.01 270.04 351.88 267.13 351.82 264.26 Z" />
<path fill="#000000" opacity="1.00" d=" M 337.53 272.50 C 340.32 272.74 343.11 272.98 345.91 273.22 C 345.93 274.92 345.98 278.33 346.00 280.04 C 343.38 280.00 340.77 279.97 338.18 279.96 C 338.02 278.09 337.70 274.36 337.53 272.50 Z" />
<path fill="#000000" opacity="1.00" d=" M 358.96 273.05 C 360.77 273.02 362.58 272.99 364.40 272.96 C 364.62 275.78 364.98 278.58 365.29 281.38 C 363.76 280.94 360.69 280.05 359.15 279.60 C 359.10 277.97 359.01 274.69 358.96 273.05 Z" />
<path fill="#000000" opacity="1.00" d=" M 330.77 280.02 C 333.23 280.00 335.71 279.98 338.18 279.96 C 337.84 282.08 337.17 286.32 336.84 288.44 C 334.69 285.72 332.70 282.88 330.77 280.02 Z" />
<path fill="#000000" opacity="1.00" d=" M 346.00 280.04 C 350.38 279.89 354.75 279.75 359.15 279.60 C 359.09 281.46 358.98 285.16 358.92 287.01 C 354.64 287.01 350.35 286.98 346.08 286.99 C 346.06 285.25 346.02 281.77 346.00 280.04 Z" />
</g>
</svg>
